<svg id="图层_1" data-name="图层 1" xmlns="http://www.w3.org/2000/svg" xmlns:xlink="http://www.w3.org/1999/xlink" viewBox="0 0 727.17 484.78"><defs><style>.cls-1,.cls-82,.cls-83,.cls-84,.cls-85,.cls-86,.cls-87,.cls-88,.cls-89,.cls-90,.cls-91,.cls-92,.cls-93{fill:none;}.cls-1{opacity:0.27;}.cls-2{opacity:0.28;fill:url(#未命名的渐变_5650);}.cls-3{opacity:0.29;fill:url(#未命名的渐变_5650-2);}.cls-4{opacity:0.3;fill:url(#未命名的渐变_5650-3);}.cls-5{opacity:0.31;fill:url(#未命名的渐变_5650-4);}.cls-6{opacity:0.31;fill:url(#未命名的渐变_5650-5);}.cls-7{opacity:0.32;fill:url(#未命名的渐变_5650-6);}.cls-8{opacity:0.33;fill:url(#未命名的渐变_5650-7);}.cls-9{opacity:0.34;fill:url(#未命名的渐变_5650-8);}.cls-10{opacity:0.35;fill:url(#未命名的渐变_5650-9);}.cls-11{opacity:0.36;fill:url(#未命名的渐变_5650-10);}.cls-12{opacity:0.37;fill:url(#未命名的渐变_5650-11);}.cls-13{opacity:0.38;fill:url(#未命名的渐变_5650-12);}.cls-14{opacity:0.39;fill:url(#未命名的渐变_5650-13);}.cls-15{opacity:0.4;fill:url(#未命名的渐变_5650-14);}.cls-16{opacity:0.41;fill:url(#未命名的渐变_5650-15);}.cls-17{opacity:0.42;fill:url(#未命名的渐变_5650-16);}.cls-18{opacity:0.42;fill:url(#未命名的渐变_5650-17);}.cls-19{opacity:0.43;fill:url(#未命名的渐变_5650-18);}.cls-20{opacity:0.44;fill:url(#未命名的渐变_5650-19);}.cls-21{opacity:0.45;fill:url(#未命名的渐变_5650-20);}.cls-22{opacity:0.46;fill:url(#未命名的渐变_5650-21);}.cls-23{opacity:0.47;fill:url(#未命名的渐变_5650-22);}.cls-24{opacity:0.48;fill:url(#未命名的渐变_5650-23);}.cls-25{opacity:0.49;fill:url(#未命名的渐变_5650-24);}.cls-26{opacity:0.5;fill:url(#未命名的渐变_5650-25);}.cls-27{opacity:0.51;fill:url(#未命名的渐变_5650-26);}.cls-28{opacity:0.52;fill:url(#未命名的渐变_5650-27);}.cls-29{opacity:0.52;fill:url(#未命名的渐变_5650-28);}.cls-30{opacity:0.53;fill:url(#未命名的渐变_5650-29);}.cls-31{opacity:0.54;fill:url(#未命名的渐变_5650-30);}.cls-32{opacity:0.55;fill:url(#未命名的渐变_5650-31);}.cls-33{opacity:0.56;fill:url(#未命名的渐变_5650-32);}.cls-34{opacity:0.57;fill:url(#未命名的渐变_5650-33);}.cls-35{opacity:0.58;fill:url(#未命名的渐变_5650-34);}.cls-36{opacity:0.59;fill:url(#未命名的渐变_5650-35);}.cls-37{opacity:0.6;fill:url(#未命名的渐变_5650-36);}.cls-38{opacity:0.61;fill:url(#未命名的渐变_5650-37);}.cls-39{opacity:0.62;fill:url(#未命名的渐变_5650-38);}.cls-40{opacity:0.63;fill:url(#未命名的渐变_5650-39);}.cls-41{opacity:0.63;fill:url(#未命名的渐变_5650-40);}.cls-42{opacity:0.64;fill:url(#未命名的渐变_5650-41);}.cls-43{opacity:0.65;fill:url(#未命名的渐变_5650-42);}.cls-44{opacity:0.66;fill:url(#未命名的渐变_5650-43);}.cls-45{opacity:0.67;fill:url(#未命名的渐变_5650-44);}.cls-46{opacity:0.68;fill:url(#未命名的渐变_5650-45);}.cls-47{opacity:0.69;fill:url(#未命名的渐变_5650-46);}.cls-48{opacity:0.7;fill:url(#未命名的渐变_5650-47);}.cls-49{opacity:0.71;fill:url(#未命名的渐变_5650-48);}.cls-50{opacity:0.72;fill:url(#未命名的渐变_5650-49);}.cls-51{opacity:0.73;fill:url(#未命名的渐变_5650-50);}.cls-52{opacity:0.73;fill:url(#未命名的渐变_5650-51);}.cls-53{opacity:0.74;fill:url(#未命名的渐变_5650-52);}.cls-54{opacity:0.75;fill:url(#未命名的渐变_5650-53);}.cls-55{opacity:0.76;fill:url(#未命名的渐变_5650-54);}.cls-56{opacity:0.77;fill:url(#未命名的渐变_5650-55);}.cls-57{opacity:0.78;fill:url(#未命名的渐变_5650-56);}.cls-58{opacity:0.79;fill:url(#未命名的渐变_5650-57);}.cls-59{opacity:0.8;fill:url(#未命名的渐变_5650-58);}.cls-60{opacity:0.81;fill:url(#未命名的渐变_5650-59);}.cls-61{opacity:0.82;fill:url(#未命名的渐变_5650-60);}.cls-62{opacity:0.83;fill:url(#未命名的渐变_5650-61);}.cls-63{opacity:0.84;fill:url(#未命名的渐变_5650-62);}.cls-64{opacity:0.84;fill:url(#未命名的渐变_5650-63);}.cls-65{opacity:0.85;fill:url(#未命名的渐变_5650-64);}.cls-66{opacity:0.86;fill:url(#未命名的渐变_5650-65);}.cls-67{opacity:0.87;fill:url(#未命名的渐变_5650-66);}.cls-68{opacity:0.88;fill:url(#未命名的渐变_5650-67);}.cls-69{opacity:0.89;fill:url(#未命名的渐变_5650-68);}.cls-70{opacity:0.9;fill:url(#未命名的渐变_5650-69);}.cls-71{opacity:0.91;fill:url(#未命名的渐变_5650-70);}.cls-72{opacity:0.92;fill:url(#未命名的渐变_5650-71);}.cls-73{opacity:0.93;fill:url(#未命名的渐变_5650-72);}.cls-74{opacity:0.94;fill:url(#未命名的渐变_5650-73);}.cls-75{opacity:0.95;fill:url(#未命名的渐变_5650-74);}.cls-76{opacity:0.95;fill:url(#未命名的渐变_5650-75);}.cls-77{opacity:0.96;fill:url(#未命名的渐变_5650-76);}.cls-78{opacity:0.97;fill:url(#未命名的渐变_5650-77);}.cls-79{opacity:0.98;fill:url(#未命名的渐变_5650-78);}.cls-80{opacity:0.99;fill:url(#未命名的渐变_5650-79);}.cls-81{fill:url(#未命名的渐变_5650-80);}.cls-82,.cls-83,.cls-84,.cls-85,.cls-86,.cls-87,.cls-88,.cls-89,.cls-90,.cls-91,.cls-92,.cls-93{stroke:#fff;stroke-miterlimit:10;stroke-width:3px;}.cls-82{opacity:0.93;}.cls-83{opacity:0.86;}.cls-84{opacity:0.79;}.cls-85{opacity:0.72;}.cls-86{opacity:0.65;}.cls-87{opacity:0.58;}.cls-88{opacity:0.5;}.cls-89{opacity:0.43;}.cls-90{opacity:0.36;}.cls-91{opacity:0.29;}.cls-92{opacity:0.22;}.cls-93{opacity:0.15;}</style><linearGradient id="未命名的渐变_5650" x1="55.34" y1="242.37" x2="673.04" y2="242.37" gradientUnits="userSpaceOnUse"><stop offset="0" stop-color="#4473e8"/><stop offset="0.9" stop-color="#8651eb"/><stop offset="1" stop-color="#8e4deb"/></linearGradient><linearGradient id="未命名的渐变_5650-2" x1="58.84" y1="242.35" x2="670.74" y2="242.35" xlink:href="#未命名的渐变_5650"/><linearGradient id="未命名的渐变_5650-3" x1="62.34" y1="242.33" x2="668.44" y2="242.33" xlink:href="#未命名的渐变_5650"/><linearGradient id="未命名的渐变_5650-4" x1="65.85" y1="242.31" x2="666.14" y2="242.31" xlink:href="#未命名的渐变_5650"/><linearGradient id="未命名的渐变_5650-5" x1="69.35" y1="242.28" x2="663.85" y2="242.28" xlink:href="#未命名的渐变_5650"/><linearGradient id="未命名的渐变_5650-6" x1="72.86" y1="242.26" x2="661.55" y2="242.26" xlink:href="#未命名的渐变_5650"/><linearGradient id="未命名的渐变_5650-7" x1="76.36" y1="242.24" x2="659.25" y2="242.24" xlink:href="#未命名的渐变_5650"/><linearGradient id="未命名的渐变_5650-8" x1="79.86" y1="242.22" x2="656.95" y2="242.22" xlink:href="#未命名的渐变_5650"/><linearGradient id="未命名的渐变_5650-9" x1="83.37" y1="242.2" x2="654.66" y2="242.2" xlink:href="#未命名的渐变_5650"/><linearGradient id="未命名的渐变_5650-10" x1="86.87" y1="242.18" x2="652.36" y2="242.18" xlink:href="#未命名的渐变_5650"/><linearGradient id="未命名的渐变_5650-11" x1="90.38" y1="242.16" x2="650.06" y2="242.16" xlink:href="#未命名的渐变_5650"/><linearGradient id="未命名的渐变_5650-12" x1="93.88" y1="242.14" x2="647.76" y2="242.14" xlink:href="#未命名的渐变_5650"/><linearGradient id="未命名的渐变_5650-13" x1="97.38" y1="242.12" x2="645.47" y2="242.12" xlink:href="#未命名的渐变_5650"/><linearGradient id="未命名的渐变_5650-14" x1="100.89" y1="242.1" x2="643.17" y2="242.1" xlink:href="#未命名的渐变_5650"/><linearGradient id="未命名的渐变_5650-15" x1="104.39" y1="242.08" x2="640.87" y2="242.08" xlink:href="#未命名的渐变_5650"/><linearGradient id="未命名的渐变_5650-16" x1="107.9" y1="242.06" x2="638.57" y2="242.06" xlink:href="#未命名的渐变_5650"/><linearGradient id="未命名的渐变_5650-17" x1="111.4" y1="242.04" x2="636.28" y2="242.04" xlink:href="#未命名的渐变_5650"/><linearGradient id="未命名的渐变_5650-18" x1="114.9" y1="242.01" x2="633.98" y2="242.01" xlink:href="#未命名的渐变_5650"/><linearGradient id="未命名的渐变_5650-19" x1="118.41" y1="241.99" x2="631.68" y2="241.99" xlink:href="#未命名的渐变_5650"/><linearGradient id="未命名的渐变_5650-20" x1="121.91" y1="241.97" x2="629.38" y2="241.97" xlink:href="#未命名的渐变_5650"/><linearGradient id="未命名的渐变_5650-21" x1="125.42" y1="241.95" x2="627.09" y2="241.95" xlink:href="#未命名的渐变_5650"/><linearGradient id="未命名的渐变_5650-22" x1="128.92" y1="241.93" x2="624.79" y2="241.93" xlink:href="#未命名的渐变_5650"/><linearGradient id="未命名的渐变_5650-23" x1="132.42" y1="241.91" x2="622.49" y2="241.91" xlink:href="#未命名的渐变_5650"/><linearGradient id="未命名的渐变_5650-24" x1="135.93" y1="241.89" x2="620.19" y2="241.89" xlink:href="#未命名的渐变_5650"/><linearGradient id="未命名的渐变_5650-25" x1="139.43" y1="241.87" x2="617.9" y2="241.87" xlink:href="#未命名的渐变_5650"/><linearGradient id="未命名的渐变_5650-26" x1="142.94" y1="241.85" x2="615.6" y2="241.85" xlink:href="#未命名的渐变_5650"/><linearGradient id="未命名的渐变_5650-27" x1="146.44" y1="241.83" x2="613.3" y2="241.83" xlink:href="#未命名的渐变_5650"/><linearGradient id="未命名的渐变_5650-28" x1="149.94" y1="241.81" x2="611" y2="241.81" xlink:href="#未命名的渐变_5650"/><linearGradient id="未命名的渐变_5650-29" x1="153.45" y1="241.79" x2="608.71" y2="241.79" xlink:href="#未命名的渐变_5650"/><linearGradient id="未命名的渐变_5650-30" x1="156.95" y1="241.76" x2="606.41" y2="241.76" xlink:href="#未命名的渐变_5650"/><linearGradient id="未命名的渐变_5650-31" x1="160.46" y1="241.74" x2="604.11" y2="241.74" xlink:href="#未命名的渐变_5650"/><linearGradient id="未命名的渐变_5650-32" x1="163.96" y1="241.72" x2="601.81" y2="241.72" xlink:href="#未命名的渐变_5650"/><linearGradient id="未命名的渐变_5650-33" x1="167.46" y1="241.7" x2="599.52" y2="241.7" xlink:href="#未命名的渐变_5650"/><linearGradient id="未命名的渐变_5650-34" x1="170.97" y1="241.68" x2="597.22" y2="241.68" xlink:href="#未命名的渐变_5650"/><linearGradient id="未命名的渐变_5650-35" x1="174.47" y1="241.66" x2="594.92" y2="241.66" xlink:href="#未命名的渐变_5650"/><linearGradient id="未命名的渐变_5650-36" x1="177.98" y1="241.64" x2="592.62" y2="241.64" xlink:href="#未命名的渐变_5650"/><linearGradient id="未命名的渐变_5650-37" x1="181.48" y1="241.62" x2="590.33" y2="241.62" xlink:href="#未命名的渐变_5650"/><linearGradient id="未命名的渐变_5650-38" x1="184.98" y1="241.6" x2="588.03" y2="241.6" xlink:href="#未命名的渐变_5650"/><linearGradient id="未命名的渐变_5650-39" x1="188.49" y1="241.58" x2="585.73" y2="241.58" xlink:href="#未命名的渐变_5650"/><linearGradient id="未命名的渐变_5650-40" x1="191.99" y1="241.56" x2="583.44" y2="241.56" xlink:href="#未命名的渐变_5650"/><linearGradient id="未命名的渐变_5650-41" x1="195.5" y1="241.54" x2="581.14" y2="241.54" xlink:href="#未命名的渐变_5650"/><linearGradient id="未命名的渐变_5650-42" x1="199" y1="241.52" x2="578.84" y2="241.52" xlink:href="#未命名的渐变_5650"/><linearGradient id="未命名的渐变_5650-43" x1="202.5" y1="241.49" x2="576.54" y2="241.49" xlink:href="#未命名的渐变_5650"/><linearGradient id="未命名的渐变_5650-44" x1="206.01" y1="241.47" x2="574.25" y2="241.47" xlink:href="#未命名的渐变_5650"/><linearGradient id="未命名的渐变_5650-45" x1="209.51" y1="241.45" x2="571.95" y2="241.45" xlink:href="#未命名的渐变_5650"/><linearGradient id="未命名的渐变_5650-46" x1="213.02" y1="241.43" x2="569.65" y2="241.43" xlink:href="#未命名的渐变_5650"/><linearGradient id="未命名的渐变_5650-47" x1="216.52" y1="241.41" x2="567.35" y2="241.41" xlink:href="#未命名的渐变_5650"/><linearGradient id="未命名的渐变_5650-48" x1="220.02" y1="241.39" x2="565.06" y2="241.39" xlink:href="#未命名的渐变_5650"/><linearGradient id="未命名的渐变_5650-49" x1="223.53" y1="241.37" x2="562.76" y2="241.37" xlink:href="#未命名的渐变_5650"/><linearGradient id="未命名的渐变_5650-50" x1="227.03" y1="241.35" x2="560.46" y2="241.35" xlink:href="#未命名的渐变_5650"/><linearGradient id="未命名的渐变_5650-51" x1="230.54" y1="241.33" x2="558.16" y2="241.33" xlink:href="#未命名的渐变_5650"/><linearGradient id="未命名的渐变_5650-52" x1="234.04" y1="241.31" x2="555.87" y2="241.31" xlink:href="#未命名的渐变_5650"/><linearGradient id="未命名的渐变_5650-53" x1="237.54" y1="241.29" x2="553.57" y2="241.29" xlink:href="#未命名的渐变_5650"/><linearGradient id="未命名的渐变_5650-54" x1="241.05" y1="241.27" x2="551.27" y2="241.27" xlink:href="#未命名的渐变_5650"/><linearGradient id="未命名的渐变_5650-55" x1="244.55" y1="241.25" x2="548.97" y2="241.25" xlink:href="#未命名的渐变_5650"/><linearGradient id="未命名的渐变_5650-56" x1="248.06" y1="241.22" x2="546.68" y2="241.22" xlink:href="#未命名的渐变_5650"/><linearGradient id="未命名的渐变_5650-57" x1="251.56" y1="241.2" x2="544.38" y2="241.2" xlink:href="#未命名的渐变_5650"/><linearGradient id="未命名的渐变_5650-58" x1="255.06" y1="241.18" x2="542.08" y2="241.18" xlink:href="#未命名的渐变_5650"/><linearGradient id="未命名的渐变_5650-59" x1="258.57" y1="241.16" x2="539.78" y2="241.16" xlink:href="#未命名的渐变_5650"/><linearGradient id="未命名的渐变_5650-60" x1="262.07" y1="241.14" x2="537.49" y2="241.14" xlink:href="#未命名的渐变_5650"/><linearGradient id="未命名的渐变_5650-61" x1="265.58" y1="241.12" x2="535.19" y2="241.12" xlink:href="#未命名的渐变_5650"/><linearGradient id="未命名的渐变_5650-62" x1="269.08" y1="241.1" x2="532.89" y2="241.1" xlink:href="#未命名的渐变_5650"/><linearGradient id="未命名的渐变_5650-63" x1="272.58" y1="241.08" x2="530.59" y2="241.08" xlink:href="#未命名的渐变_5650"/><linearGradient id="未命名的渐变_5650-64" x1="276.09" y1="241.06" x2="528.3" y2="241.06" xlink:href="#未命名的渐变_5650"/><linearGradient id="未命名的渐变_5650-65" x1="279.59" y1="241.04" x2="526" y2="241.04" xlink:href="#未命名的渐变_5650"/><linearGradient id="未命名的渐变_5650-66" x1="283.1" y1="241.02" x2="523.7" y2="241.02" xlink:href="#未命名的渐变_5650"/><linearGradient id="未命名的渐变_5650-67" x1="286.6" y1="241" x2="521.4" y2="241" xlink:href="#未命名的渐变_5650"/><linearGradient id="未命名的渐变_5650-68" x1="290.1" y1="240.97" x2="519.11" y2="240.97" xlink:href="#未命名的渐变_5650"/><linearGradient id="未命名的渐变_5650-69" x1="293.61" y1="240.95" x2="516.81" y2="240.95" xlink:href="#未命名的渐变_5650"/><linearGradient id="未命名的渐变_5650-70" x1="297.11" y1="240.93" x2="514.51" y2="240.93" xlink:href="#未命名的渐变_5650"/><linearGradient id="未命名的渐变_5650-71" x1="300.62" y1="240.91" x2="512.21" y2="240.91" xlink:href="#未命名的渐变_5650"/><linearGradient id="未命名的渐变_5650-72" x1="304.12" y1="240.89" x2="509.92" y2="240.89" xlink:href="#未命名的渐变_5650"/><linearGradient id="未命名的渐变_5650-73" x1="307.62" y1="240.87" x2="507.62" y2="240.87" xlink:href="#未命名的渐变_5650"/><linearGradient id="未命名的渐变_5650-74" x1="311.13" y1="240.85" x2="505.32" y2="240.85" xlink:href="#未命名的渐变_5650"/><linearGradient id="未命名的渐变_5650-75" x1="314.63" y1="240.83" x2="503.02" y2="240.83" xlink:href="#未命名的渐变_5650"/><linearGradient id="未命名的渐变_5650-76" x1="318.14" y1="240.81" x2="500.73" y2="240.81" xlink:href="#未命名的渐变_5650"/><linearGradient id="未命名的渐变_5650-77" x1="321.64" y1="240.79" x2="498.43" y2="240.79" xlink:href="#未命名的渐变_5650"/><linearGradient id="未命名的渐变_5650-78" x1="325.14" y1="240.77" x2="496.13" y2="240.77" xlink:href="#未命名的渐变_5650"/><linearGradient id="未命名的渐变_5650-79" x1="328.65" y1="240.75" x2="493.83" y2="240.75" xlink:href="#未命名的渐变_5650"/><linearGradient id="未命名的渐变_5650-80" x1="332.15" y1="240.73" x2="491.54" y2="240.73" xlink:href="#未命名的渐变_5650"/></defs><path class="cls-1" d="M573,102.82l-76.3,44.06a175.69,175.69,0,0,1-175.68,0L154.17,50.55C108.69,24.29,51.83,57.12,51.83,109.64v265.5c0,52.52,56.86,85.34,102.34,59.08L321,337.9a175.69,175.69,0,0,1,175.68,0L573,382c45.49,26.26,102.34-6.56,102.34-59.08v-161C675.33,109.39,618.48,76.56,573,102.82Z"/><path class="cls-2" d="M571.57,104.14l-75.34,43.5a174.37,174.37,0,0,1-174.4,0l-165-95.28c-45.1-26-101.46,6.51-101.46,58.58V373.8c0,52.07,56.36,84.61,101.46,58.58l165-95.29a174.42,174.42,0,0,1,174.4,0l75.34,43.5C616.67,406.63,673,374.08,673,322V162.72C673,110.65,616.67,78.11,571.57,104.14Z"/><path class="cls-3" d="M570.16,105.46l-74.39,43a173.13,173.13,0,0,1-173.11,0L159.42,54.17c-44.7-25.81-100.58,6.45-100.58,58.06V372.46c0,51.62,55.88,83.88,100.58,58.07l163.24-94.25a173.13,173.13,0,0,1,173.11,0l74.39,43c44.7,25.81,100.58-6.45,100.58-58.07V163.53C670.74,111.91,614.86,79.65,570.16,105.46Z"/><path class="cls-4" d="M568.74,106.78l-73.44,42.4a171.81,171.81,0,0,1-171.81,0L162,56c-44.31-25.58-99.7,6.4-99.7,57.56V371.12c0,51.17,55.39,83.14,99.7,57.56l161.45-93.21a171.83,171.83,0,0,1,171.82,0l73.43,42.4c44.31,25.58,99.7-6.39,99.7-57.56v-156C668.44,113.18,613.05,81.2,568.74,106.78Z"/><path class="cls-5" d="M567.33,108.1,494.84,150a170.54,170.54,0,0,1-170.53,0L164.67,57.78c-43.92-25.36-98.82,6.33-98.82,57.05v255c0,50.72,54.9,82.41,98.82,57.06l159.64-92.18a170.54,170.54,0,0,1,170.53,0l72.49,41.85c43.91,25.36,98.81-6.34,98.81-57.05V165.15C666.14,114.44,611.24,82.74,567.33,108.1Z"/><path class="cls-6" d="M565.91,109.42l-71.53,41.3a169.25,169.25,0,0,1-169.24,0L167.29,59.58c-43.53-25.13-97.94,6.28-97.94,56.54V368.44c0,50.27,54.41,81.68,97.94,56.55l157.85-91.14a169.25,169.25,0,0,1,169.24,0l71.53,41.3c43.53,25.13,97.94-6.28,97.94-56.54V166C663.85,115.7,609.44,84.29,565.91,109.42Z"/><path class="cls-7" d="M564.49,110.74l-70.57,40.75a168,168,0,0,1-167.95,0L169.91,61.39c-43.13-24.91-97,6.22-97,56V367.11c0,49.81,53.92,80.94,97.05,56L326,333a168,168,0,0,1,168,0l70.57,40.75c43.14,24.9,97.06-6.23,97.06-56v-151C661.55,117,607.63,85.83,564.49,110.74Z"/><path class="cls-8" d="M563.08,112.06l-69.63,40.19a166.66,166.66,0,0,1-166.66,0L172.53,63.19c-42.74-24.68-96.17,6.17-96.17,55.53V365.77c0,49.35,53.43,80.2,96.18,55.52l154.25-89.06a166.66,166.66,0,0,1,166.66,0l69.63,40.2c42.74,24.68,96.17-6.17,96.17-55.53V167.58C659.25,118.23,605.82,87.38,563.08,112.06Z"/><path class="cls-9" d="M561.66,113.38,493,153a165.37,165.37,0,0,1-165.37,0L175.16,65c-42.35-24.46-95.3,6.11-95.3,55V364.43c0,48.9,53,79.47,95.3,55l152.46-88a165.37,165.37,0,0,1,165.37,0l68.67,39.65C604,395.52,657,365,657,316.05V168.39C657,119.49,604,88.92,561.66,113.38Z"/><path class="cls-10" d="M560.24,114.69l-67.71,39.1a164.08,164.08,0,0,1-164.08,0l-150.67-87c-42-24.22-94.41,6.06-94.41,54.51V363.09c0,48.45,52.45,78.74,94.41,54.51l150.67-87a164.08,164.08,0,0,1,164.08,0l67.71,39.1c42,24.22,94.42-6.06,94.42-54.51v-146C654.66,120.75,602.2,90.47,560.24,114.69Z"/><path class="cls-11" d="M558.83,116l-66.76,38.55a162.79,162.79,0,0,1-162.79,0L180.4,68.61c-41.57-24-93.53,6-93.53,54V361.75c0,48,52,78,93.53,54L329.27,329.8a162.81,162.81,0,0,1,162.8,0l66.76,38.55c41.57,24,93.53-6,93.53-54V170C652.36,122,600.4,92,558.83,116Z"/><path class="cls-12" d="M557.41,117.33l-65.81,38a161.5,161.5,0,0,1-161.5,0L183,70.41c-41.18-23.77-92.65,6-92.65,53.49V360.42c0,47.54,51.47,77.26,92.65,53.49L330.1,329a161.5,161.5,0,0,1,161.5,0l65.81,38c41.18,23.77,92.65-5.95,92.65-53.49V170.82C650.06,123.28,598.59,93.56,557.41,117.33Z"/><path class="cls-13" d="M556,118.65l-64.85,37.44a160.2,160.2,0,0,1-160.21,0L185.65,72.22c-40.79-23.55-91.77,5.88-91.77,53V359.08c0,47.09,51,76.53,91.77,53l145.28-83.88a160.2,160.2,0,0,1,160.21,0L556,365.63c40.79,23.55,91.77-5.89,91.77-53v-141C647.76,124.54,596.78,95.1,556,118.65Z"/><path class="cls-14" d="M554.58,120l-63.9,36.89a158.91,158.91,0,0,1-158.92,0L188.27,74C147.88,50.7,97.38,79.85,97.38,126.5V357.74c0,46.64,50.5,75.8,90.89,52.47l143.49-82.84a158.91,158.91,0,0,1,158.92,0l63.9,36.9c40.39,23.32,90.89-5.83,90.89-52.48V172.44C645.47,125.8,595,96.65,554.58,120Z"/><path class="cls-15" d="M553.16,121.29l-62.94,36.34a157.64,157.64,0,0,1-157.64,0L190.9,75.83c-40-23.1-90,5.77-90,52V356.4c0,46.19,50,75.06,90,52l141.68-81.81a157.69,157.69,0,0,1,157.64,0l62.94,36.35c40,23.09,90-5.78,90-52V173.26C643.17,127.06,593.16,98.19,553.16,121.29Z"/><path class="cls-16" d="M551.75,122.61l-62,35.79a156.33,156.33,0,0,1-156.34,0L193.52,77.63c-39.61-22.87-89.13,5.72-89.13,51.46v226c0,45.74,49.52,74.33,89.13,51.46l139.89-80.77a156.38,156.38,0,0,1,156.34,0l62,35.8c39.62,22.87,89.13-5.72,89.13-51.46v-136C640.87,128.33,591.36,99.74,551.75,122.61Z"/><path class="cls-17" d="M550.33,123.93l-61,35.24a155,155,0,0,1-155,0L196.14,79.44C156.92,56.8,107.9,85.1,107.9,130.39V353.72c0,45.29,49,73.6,88.24,50.95l138.1-79.73a155.08,155.08,0,0,1,155.05,0l61,35.24c39.22,22.65,88.24-5.66,88.24-50.94V174.88C638.57,129.59,589.55,101.28,550.33,123.93Z"/><path class="cls-18" d="M548.91,125.25l-60.08,34.69a153.81,153.81,0,0,1-153.77,0l-136.3-78.7c-38.82-22.41-87.36,5.61-87.36,50.44V352.39c0,44.83,48.54,72.85,87.36,50.44l136.3-78.7a153.81,153.81,0,0,1,153.77,0l60.08,34.69c38.83,22.42,87.37-5.6,87.37-50.44V175.69C636.28,130.85,587.74,102.83,548.91,125.25Z"/><path class="cls-19" d="M547.5,126.57,488.36,160.7a152.45,152.45,0,0,1-152.47,0L201.39,83.05C163,60.86,114.9,88.6,114.9,133V351.05c0,44.38,48,72.12,86.49,49.93l134.5-77.66a152.5,152.5,0,0,1,152.47,0l59.14,34.14c38.43,22.2,86.48-5.54,86.48-49.93v-131C634,132.11,585.93,104.37,547.5,126.57Z"/><path class="cls-20" d="M546.08,127.88,487.9,161.47a151.16,151.16,0,0,1-151.18,0L204,84.85c-38-22-85.6,5.5-85.6,49.43V349.71c0,43.93,47.56,71.39,85.6,49.42l132.71-76.62a151.21,151.21,0,0,1,151.18,0l58.18,33.59c38,22,85.6-5.49,85.6-49.42V177.31C631.68,133.38,584.12,105.92,546.08,127.88Z"/><path class="cls-21" d="M544.66,129.2l-57.22,33a149.89,149.89,0,0,1-149.9,0L206.63,86.66c-37.65-21.74-84.72,5.43-84.72,48.91v212.8c0,43.48,47.07,70.65,84.72,48.92L337.54,321.7a149.93,149.93,0,0,1,149.9,0l57.22,33c37.66,21.74,84.72-5.43,84.72-48.91V178.12C629.38,134.64,582.32,107.46,544.66,129.2Z"/><path class="cls-22" d="M543.25,130.52,487,163a148.59,148.59,0,0,1-148.61,0L209.26,88.47C172,67,125.42,93.84,125.42,136.87V347c0,43,46.57,69.92,83.84,48.41l129.11-74.55a148.64,148.64,0,0,1,148.61,0l56.27,32.49c37.26,21.52,83.84-5.38,83.84-48.4v-126C627.09,135.9,580.51,109,543.25,130.52Z"/><path class="cls-23" d="M541.83,131.84l-55.32,31.94a147.33,147.33,0,0,1-147.31,0L211.88,90.27c-36.87-21.29-83,5.32-83,47.9V345.7c0,42.57,46.09,69.18,83,47.89L339.2,320.08a147.33,147.33,0,0,1,147.31,0L541.83,352c36.87,21.29,83-5.32,83-47.89V179.74C624.79,137.16,578.7,110.55,541.83,131.84Z"/><path class="cls-24" d="M540.41,133.16l-54.36,31.39a146.06,146.06,0,0,1-146,0L214.5,92.08C178,71,132.42,97.34,132.42,139.46v204.9c0,42.12,45.6,68.45,82.08,47.38L340,319.27a146,146,0,0,1,146,0l54.36,31.38c36.48,21.06,82.08-5.26,82.08-47.39V180.55C622.49,138.42,576.89,112.1,540.41,133.16Z"/><path class="cls-25" d="M539,134.48l-53.41,30.83a144.72,144.72,0,0,1-144.74,0L217.12,93.88c-36.08-20.83-81.19,5.21-81.19,46.88V343c0,41.67,45.11,67.71,81.2,46.88l123.72-71.43a144.72,144.72,0,0,1,144.74,0L539,349.3c36.08,20.84,81.19-5.21,81.19-46.88V181.36C620.19,139.69,575.08,113.64,539,134.48Z"/><path class="cls-26" d="M537.58,135.8l-52.45,30.28a143.43,143.43,0,0,1-143.45,0L219.75,95.69c-35.7-20.61-80.32,5.15-80.32,46.37V341.68c0,41.22,44.62,67,80.32,46.37l121.93-70.39a143.43,143.43,0,0,1,143.45,0l52.45,30.28c35.7,20.61,80.32-5.15,80.32-46.37V182.17C617.9,141,573.28,115.19,537.58,135.8Z"/><path class="cls-27" d="M536.16,137.12l-51.5,29.73a142.18,142.18,0,0,1-142.16,0L222.37,97.49c-35.3-20.38-79.43,5.1-79.43,45.86v197c0,40.77,44.13,66.25,79.43,45.86L342.5,316.85a142.13,142.13,0,0,1,142.16,0l51.5,29.73c35.31,20.38,79.44-5.1,79.44-45.86V183C615.6,142.21,571.47,116.73,536.16,137.12Z"/><path class="cls-28" d="M534.75,138.44,484.2,167.62a140.89,140.89,0,0,1-140.87,0L225,99.3c-34.91-20.16-78.55,5-78.55,45.35V339c0,40.32,43.64,65.51,78.55,45.36L343.33,316a140.84,140.84,0,0,1,140.87,0l50.55,29.18c34.91,20.16,78.55-5,78.55-45.35V183.79C613.3,143.47,569.66,118.28,534.75,138.44Z"/><path class="cls-29" d="M533.33,139.75l-49.59,28.64a139.6,139.6,0,0,1-139.58,0L227.62,101.1c-34.52-19.93-77.68,5-77.68,44.85V337.67c0,39.86,43.16,64.77,77.68,44.84l116.54-67.28a139.55,139.55,0,0,1,139.58,0l49.59,28.63c34.52,19.93,77.67-5,77.67-44.85V184.6C611,144.74,567.85,119.82,533.33,139.75Z"/><path class="cls-30" d="M531.92,141.07l-48.65,28.09a138.29,138.29,0,0,1-138.28,0L230.24,102.91c-34.13-19.71-76.79,4.92-76.79,44.33V336.33c0,39.41,42.66,64,76.79,44.33L345,314.42a138.28,138.28,0,0,1,138.3,0l48.64,28.08c34.12,19.7,76.79-4.93,76.79-44.34V185.41C608.71,146,566,121.37,531.92,141.07Z"/><path class="cls-31" d="M530.5,142.39l-47.69,27.53a137,137,0,0,1-137,0L232.86,104.71C199.12,85.23,157,109.58,157,148.54V335c0,39,42.17,63.31,75.91,43.83l113-65.21a137,137,0,0,1,137,0l47.69,27.53c33.74,19.48,75.91-4.87,75.91-43.83V186.22C606.41,147.26,564.24,122.91,530.5,142.39Z"/><path class="cls-32" d="M529.08,143.71l-46.73,27a135.72,135.72,0,0,1-135.71,0L235.49,106.52c-33.35-19.25-75,4.81-75,43.32V333.65c0,38.51,41.68,62.57,75,43.32L346.64,312.8a135.67,135.67,0,0,1,135.71,0l46.73,27c33.35,19.25,75-4.82,75-43.32V187C604.11,148.52,562.43,124.46,529.08,143.71Z"/><path class="cls-33" d="M527.67,145l-45.78,26.43a134.43,134.43,0,0,1-134.42,0L238.11,108.32c-33-19-74.15,4.76-74.15,42.81V332.31c0,38.06,41.19,61.84,74.15,42.81L347.47,312a134.38,134.38,0,0,1,134.42,0l45.78,26.43c33,19,74.14-4.76,74.14-42.81V187.84C601.81,149.79,560.62,126,527.67,145Z"/><path class="cls-34" d="M526.25,146.35l-44.83,25.88a133.14,133.14,0,0,1-133.13,0l-107.56-62.1c-32.56-18.8-73.27,4.7-73.27,42.3V331c0,37.6,40.71,61.1,73.27,42.3l107.56-62.1a133.09,133.09,0,0,1,133.13,0l44.83,25.88c32.56,18.8,73.27-4.7,73.27-42.3V188.65C599.52,151.05,558.81,127.55,526.25,146.35Z"/><path class="cls-35" d="M524.83,147.67,481,173a131.84,131.84,0,0,1-131.84,0L243.35,111.93C211.18,93.36,171,116.58,171,153.73V329.64c0,37.15,40.21,60.36,72.38,41.79l105.77-61.06a131.82,131.82,0,0,1,131.84,0l43.87,25.33c32.17,18.57,72.39-4.65,72.39-41.8V189.46C597.22,152.31,557,129.09,524.83,147.67Z"/><path class="cls-36" d="M523.42,149,480.5,173.77a130.55,130.55,0,0,1-130.55,0l-104-60c-31.78-18.35-71.51,4.59-71.51,41.28V328.3c0,36.7,39.73,59.63,71.51,41.28l104-60a130.55,130.55,0,0,1,130.55,0l42.92,24.78c31.78,18.34,71.5-4.59,71.5-41.29V190.27C594.92,153.57,555.2,130.64,523.42,149Z"/><path class="cls-37" d="M522,150.31l-42,24.22a129.28,129.28,0,0,1-129.27,0l-102.17-59C217.21,97.42,178,120.07,178,156.32V327c0,36.25,39.23,58.9,70.62,40.78l102.17-59a129.28,129.28,0,0,1,129.27,0L522,333c31.39,18.13,70.62-4.53,70.62-40.77V191.08C592.62,154.84,553.39,132.18,522,150.31Z"/><path class="cls-38" d="M520.58,151.62l-41,23.68a128,128,0,0,1-128,0l-100.38-58c-31-17.9-69.74,4.47-69.74,40.27v168c0,35.79,38.75,58.17,69.74,40.27L351.6,307.94a128,128,0,0,1,128,0l41,23.67c31,17.9,69.75-4.47,69.75-40.26V191.89C590.33,156.1,551.58,133.73,520.58,151.62Z"/><path class="cls-39" d="M519.17,152.94l-40.06,23.13a126.68,126.68,0,0,1-126.68,0l-98.58-56.92C223.24,101.48,185,123.57,185,158.91V324.28c0,35.34,38.26,57.43,68.87,39.76l98.58-56.91a126.68,126.68,0,0,1,126.68,0l40.06,23.12c30.6,17.67,68.86-4.41,68.86-39.75V192.7C588,157.36,549.77,135.27,519.17,152.94Z"/><path class="cls-40" d="M517.75,154.26l-39.1,22.58a125.4,125.4,0,0,1-125.4,0L256.47,121c-30.21-17.44-68,4.36-68,39.25V323c0,34.88,37.77,56.69,68,39.25l96.78-55.88a125.4,125.4,0,0,1,125.4,0l39.1,22.57c30.21,17.45,68-4.36,68-39.25V193.51C585.73,158.62,548,136.82,517.75,154.26Z"/><path class="cls-41" d="M516.33,155.58l-38.14,22a124.11,124.11,0,0,1-124.11,0l-95-54.84c-29.82-17.22-67.1,4.3-67.1,38.74v160.1c0,34.43,37.28,56,67.1,38.74l95-54.84a124.11,124.11,0,0,1,124.11,0l38.14,22c29.83,17.22,67.11-4.3,67.11-38.74V194.32C583.44,159.89,546.16,138.36,516.33,155.58Z"/><path class="cls-42" d="M514.92,156.9l-37.2,21.47a122.82,122.82,0,0,1-122.81,0l-93.19-53.81c-29.44-17-66.22,4.25-66.22,38.23V320.27c0,34,36.78,55.22,66.22,38.23l93.19-53.8a122.8,122.8,0,0,1,122.81,0l37.2,21.47c29.43,17,66.22-4.25,66.22-38.23V195.13C581.14,161.15,544.35,139.91,514.92,156.9Z"/><path class="cls-43" d="M513.5,158.22l-36.24,20.92a121.53,121.53,0,0,1-121.53,0l-91.39-52.76c-29-16.77-65.34,4.19-65.34,37.72V318.93c0,33.53,36.3,54.49,65.34,37.72l91.39-52.76a121.53,121.53,0,0,1,121.53,0l36.24,20.92c29,16.77,65.34-4.19,65.34-37.72V195.94C578.84,162.41,542.54,141.45,513.5,158.22Z"/><path class="cls-44" d="M512.09,159.54,476.8,179.91a120.23,120.23,0,0,1-120.24,0L267,128.18c-28.65-16.54-64.46,4.14-64.46,37.22V317.59c0,33.08,35.81,53.76,64.46,37.22l89.6-51.73a120.23,120.23,0,0,1,120.24,0l35.29,20.37c28.64,16.54,64.45-4.13,64.45-37.21V196.75C576.54,163.67,540.73,143,512.09,159.54Z"/><path class="cls-45" d="M510.67,160.86l-34.34,19.82a118.92,118.92,0,0,1-118.94,0L269.58,130c-28.25-16.32-63.57,4.07-63.57,36.7V316.26c0,32.62,35.32,53,63.57,36.7l87.81-50.69a118.92,118.92,0,0,1,118.94,0l34.34,19.82c28.25,16.31,63.58-4.08,63.58-36.71V197.56C574.25,164.94,538.93,144.54,510.67,160.86Z"/><path class="cls-46" d="M509.25,162.18l-33.38,19.27a117.65,117.65,0,0,1-117.66,0l-86-49.66c-27.87-16.09-62.7,4-62.7,36.2V314.92c0,32.17,34.83,52.28,62.7,36.19l86-49.65a117.65,117.65,0,0,1,117.66,0l33.38,19.27c27.87,16.09,62.7-4,62.7-36.2V198.37C572,166.2,537.12,146.09,509.25,162.18Z"/><path class="cls-47" d="M507.84,163.49l-32.43,18.73a116.41,116.41,0,0,1-116.37,0L274.83,133.6c-27.47-15.86-61.81,4-61.81,35.69V313.58c0,31.72,34.34,51.55,61.81,35.69L359,300.65a116.36,116.36,0,0,1,116.37,0l32.43,18.72c27.47,15.86,61.81-4,61.81-35.69v-84.5C569.65,167.46,535.31,147.63,507.84,163.49Z"/><path class="cls-48" d="M506.42,164.81,475,183a115.07,115.07,0,0,1-115.08,0L277.45,135.4c-27.08-15.63-60.93,3.91-60.93,35.18V312.24c0,31.27,33.85,50.82,60.93,35.18l82.42-47.58a115.07,115.07,0,0,1,115.08,0L506.42,318c27.08,15.63,60.93-3.91,60.93-35.18V200C567.35,168.72,533.5,149.18,506.42,164.81Z"/><path class="cls-49" d="M505,166.13l-30.52,17.62a113.75,113.75,0,0,1-113.78,0l-80.62-46.54C253.39,121.8,220,141.06,220,171.88v139c0,30.82,33.37,50.08,60.06,34.67L360.7,299a113.75,113.75,0,0,1,113.78,0L505,316.65c26.69,15.41,60.06-3.85,60.06-34.67V200.8C565.06,170,531.69,150.72,505,166.13Z"/><path class="cls-50" d="M503.59,167.45,474,184.52a112.48,112.48,0,0,1-112.5,0L282.7,139c-26.3-15.18-59.17,3.8-59.17,34.17V309.56c0,30.37,32.87,49.35,59.17,34.17l78.82-45.51a112.48,112.48,0,0,1,112.5,0l29.57,17.07c26.3,15.18,59.17-3.8,59.17-34.16V201.61C562.76,171.25,529.89,152.27,503.59,167.45Z"/><path class="cls-51" d="M502.17,168.77l-28.61,16.52a111.19,111.19,0,0,1-111.21,0l-77-44.47c-25.91-15-58.29,3.74-58.29,33.65V308.23c0,29.91,32.39,48.61,58.29,33.65l77-44.47a111.19,111.19,0,0,1,111.21,0l28.61,16.52c25.91,15,58.29-3.74,58.29-33.66V202.42C560.46,172.51,528.08,153.81,502.17,168.77Z"/><path class="cls-52" d="M500.75,170.09l-27.65,16a110,110,0,0,1-109.92,0l-75.24-43.44c-25.51-14.73-57.4,3.69-57.4,33.15V306.89c0,29.46,31.89,47.87,57.4,33.14l75.24-43.43a109.9,109.9,0,0,1,109.92,0l27.65,16c25.52,14.73,57.41-3.69,57.41-33.15V203.23C558.16,173.77,526.27,155.36,500.75,170.09Z"/><path class="cls-53" d="M499.34,171.41l-26.71,15.42a108.65,108.65,0,0,1-108.63,0l-73.43-42.4C265.44,129.92,234,148.05,234,177.07V305.55c0,29,31.4,47.14,56.53,32.64L364,295.79a108.61,108.61,0,0,1,108.63,0l26.71,15.42c25.12,14.5,56.53-3.63,56.53-32.64V204C555.87,175,524.46,156.9,499.34,171.41Z"/><path class="cls-54" d="M497.92,172.73l-25.75,14.86a107.31,107.31,0,0,1-107.34,0l-71.64-41.36c-24.73-14.28-55.65,3.57-55.65,32.13V304.21c0,28.56,30.92,46.41,55.65,32.13L364.83,295a107.31,107.31,0,0,1,107.34,0l25.75,14.87c24.73,14.28,55.65-3.57,55.65-32.13V204.86C553.57,176.3,522.65,158.45,497.92,172.73Z"/><path class="cls-55" d="M496.5,174.05l-24.79,14.31a106,106,0,0,1-106,0L295.81,148c-24.34-14-54.76,3.51-54.76,31.62V302.87c0,28.11,30.42,45.68,54.76,31.62l69.85-40.32a106,106,0,0,1,106,0l24.79,14.32c24.35,14.05,54.77-3.52,54.77-31.62v-71.2C551.27,177.56,520.85,160,496.5,174.05Z"/><path class="cls-56" d="M495.09,175.36l-23.85,13.77a104.78,104.78,0,0,1-104.76,0l-68-39.29C274.49,136,244.55,153.3,244.55,181V301.53c0,27.66,29.94,44.94,53.89,31.12l68-39.29a104.78,104.78,0,0,1,104.76,0l23.85,13.77C519,321,549,303.67,549,276V206.48C549,178.82,519,161.54,495.09,175.36Z"/><path class="cls-57" d="M493.67,176.68,470.78,189.9a103.49,103.49,0,0,1-103.47,0l-66.25-38.25c-23.56-13.6-53,3.4-53,30.6v118c0,27.2,29.44,44.2,53,30.6l66.25-38.25a103.49,103.49,0,0,1,103.47,0l22.89,13.21c23.56,13.61,53-3.4,53-30.6V207.29C546.68,180.08,517.23,163.08,493.67,176.68Z"/><path class="cls-58" d="M492.26,178l-21.94,12.67a102.19,102.19,0,0,1-102.18,0l-64.46-37.22c-23.16-13.37-52.12,3.35-52.12,30.1V298.86c0,26.75,29,43.47,52.12,30.09l64.46-37.21a102.19,102.19,0,0,1,102.18,0l21.94,12.66c23.16,13.38,52.12-3.34,52.12-30.09V208.1C544.38,181.35,515.42,164.63,492.26,178Z"/><path class="cls-59" d="M490.84,179.32l-21,12.12a100.92,100.92,0,0,1-100.9,0l-62.65-36.18c-22.78-13.15-51.25,3.29-51.25,29.58V297.52c0,26.3,28.47,42.73,51.25,29.59L369,290.93a100.92,100.92,0,0,1,100.9,0l21,12.11c22.77,13.15,51.24-3.28,51.24-29.58V208.91C542.08,182.61,513.61,166.17,490.84,179.32Z"/><path class="cls-60" d="M489.42,180.64l-20,11.56a99.56,99.56,0,0,1-99.6,0l-60.86-35.13c-22.38-12.93-50.36,3.23-50.36,29.07v110c0,25.85,28,42,50.36,29.08l60.86-35.14a99.61,99.61,0,0,1,99.6,0l20,11.56c22.39,12.93,50.36-3.23,50.36-29.07V209.72C539.78,183.87,511.81,167.72,489.42,180.64Z"/><path class="cls-61" d="M488,182l-19.08,11a98.32,98.32,0,0,1-98.31,0l-59.07-34.1c-22-12.7-49.48,3.17-49.48,28.57v107.4c0,25.4,27.49,41.27,49.48,28.57l59.07-34.1a98.32,98.32,0,0,1,98.31,0l19.08,11c22,12.7,49.48-3.17,49.48-28.56V210.53C537.49,185.13,510,169.26,488,182Z"/><path class="cls-62" d="M486.59,183.28l-18.12,10.46a97,97,0,0,1-97,0l-57.27-33.06a32.39,32.39,0,0,0-48.59,28V293.51c0,24.94,27,40.53,48.59,28.05l57.27-33.06a97,97,0,0,1,97,0L486.59,299a32.4,32.4,0,0,0,48.6-28.06V211.34A32.4,32.4,0,0,0,486.59,183.28Z"/><path class="cls-63" d="M485.17,184.6,468,194.51a95.75,95.75,0,0,1-95.74,0l-55.47-32A31.81,31.81,0,0,0,269.08,190V292.17a31.81,31.81,0,0,0,47.72,27.55l55.47-32a95.75,95.75,0,0,1,95.74,0l17.16,9.91a31.81,31.81,0,0,0,47.72-27.55v-57.9A31.81,31.81,0,0,0,485.17,184.6Z"/><path class="cls-64" d="M483.76,185.92l-16.22,9.36a94.44,94.44,0,0,1-94.44,0l-53.68-31a31.22,31.22,0,0,0-46.84,27v99.5a31.22,31.22,0,0,0,46.84,27l53.68-31a94.44,94.44,0,0,1,94.44,0l16.22,9.36a31.22,31.22,0,0,0,46.83-27V213A31.22,31.22,0,0,0,483.76,185.92Z"/><path class="cls-65" d="M482.34,187.24l-15.26,8.81a93.17,93.17,0,0,1-93.16,0l-51.88-30a30.63,30.63,0,0,0-46,26.53v96.87A30.63,30.63,0,0,0,322,316l51.88-29.95a93.17,93.17,0,0,1,93.16,0l15.26,8.81a30.64,30.64,0,0,0,46-26.53V213.77A30.63,30.63,0,0,0,482.34,187.24Z"/><path class="cls-66" d="M480.92,188.55l-14.3,8.26a91.87,91.87,0,0,1-91.87,0L324.67,167.9a30.05,30.05,0,0,0-45.08,26v94.23a30.05,30.05,0,0,0,45.08,26l50.08-28.92a91.87,91.87,0,0,1,91.87,0l14.3,8.26a30.05,30.05,0,0,0,45.08-26V214.58A30.06,30.06,0,0,0,480.92,188.55Z"/><path class="cls-67" d="M479.51,189.87l-13.35,7.71a90.58,90.58,0,0,1-90.58,0L327.29,169.7a29.46,29.46,0,0,0-44.19,25.52v91.59a29.46,29.46,0,0,0,44.19,25.52l48.29-27.88a90.58,90.58,0,0,1,90.58,0l13.35,7.71a29.46,29.46,0,0,0,44.19-25.52V215.39A29.46,29.46,0,0,0,479.51,189.87Z"/><path class="cls-68" d="M478.09,191.19l-12.4,7.16a89.27,89.27,0,0,1-89.28,0l-46.5-26.84a28.87,28.87,0,0,0-43.31,25v89a28.87,28.87,0,0,0,43.31,25l46.5-26.84a89.27,89.27,0,0,1,89.28,0l12.4,7.16a28.88,28.88,0,0,0,43.31-25V216.2A28.88,28.88,0,0,0,478.09,191.19Z"/><path class="cls-69" d="M476.67,192.51l-11.44,6.61a88,88,0,0,1-88,0l-44.7-25.81a28.29,28.29,0,0,0-42.43,24.5v86.33a28.3,28.3,0,0,0,42.44,24.5l44.69-25.81a88,88,0,0,1,88,0l11.44,6.61a28.29,28.29,0,0,0,42.44-24.5V217A28.29,28.29,0,0,0,476.67,192.51Z"/><path class="cls-70" d="M475.26,193.83l-10.49,6.06a86.71,86.71,0,0,1-86.71,0l-42.9-24.77a27.7,27.7,0,0,0-41.55,24V282.8a27.7,27.7,0,0,0,41.55,24L378.06,282a86.71,86.71,0,0,1,86.71,0l10.49,6.06a27.7,27.7,0,0,0,41.55-24V217.82A27.7,27.7,0,0,0,475.26,193.83Z"/><path class="cls-71" d="M473.84,195.15l-9.54,5.51a85.44,85.44,0,0,1-85.41,0l-41.11-23.74a27.12,27.12,0,0,0-40.67,23.48v81.06a27.11,27.11,0,0,0,40.67,23.48l41.11-23.73a85.4,85.4,0,0,1,85.41,0l9.54,5.51a27.11,27.11,0,0,0,40.67-23.48V218.63A27.11,27.11,0,0,0,473.84,195.15Z"/><path class="cls-72" d="M472.43,196.47l-8.59,4.95a84.12,84.12,0,0,1-84.13,0L340.4,178.73a26.52,26.52,0,0,0-39.78,23v78.42a26.52,26.52,0,0,0,39.78,23l39.31-22.7a84.12,84.12,0,0,1,84.13,0l8.59,5a26.52,26.52,0,0,0,39.78-23V219.44A26.52,26.52,0,0,0,472.43,196.47Z"/><path class="cls-73" d="M471,197.79l-7.63,4.4a82.83,82.83,0,0,1-82.84,0L343,180.53A25.94,25.94,0,0,0,304.12,203v75.79A25.94,25.94,0,0,0,343,301.25l37.51-21.66a82.83,82.83,0,0,1,82.84,0L471,284a25.94,25.94,0,0,0,38.91-22.47V220.25A25.94,25.94,0,0,0,471,197.79Z"/><path class="cls-74" d="M469.59,199.11,462.92,203a81.54,81.54,0,0,1-81.55,0l-35.72-20.62a25.35,25.35,0,0,0-38,21.95v73.16a25.35,25.35,0,0,0,38,21.95l35.72-20.62a81.54,81.54,0,0,1,81.55,0l6.67,3.86a25.36,25.36,0,0,0,38-22V221.06A25.35,25.35,0,0,0,469.59,199.11Z"/><path class="cls-75" d="M468.18,200.42l-5.73,3.31a80.25,80.25,0,0,1-80.26,0l-33.92-19.59a24.76,24.76,0,0,0-37.14,21.45v70.52a24.76,24.76,0,0,0,37.14,21.45L382.19,278a80.25,80.25,0,0,1,80.26,0l5.73,3.31a24.76,24.76,0,0,0,37.14-21.45v-38A24.76,24.76,0,0,0,468.18,200.42Z"/><path class="cls-76" d="M466.76,201.74,462,204.5a79,79,0,0,1-79,0L350.9,186a24.18,24.18,0,0,0-36.27,20.94v67.88a24.18,24.18,0,0,0,36.27,20.94L383,277.16a79,79,0,0,1,79,0l4.77,2.76A24.18,24.18,0,0,0,503,259v-36.3A24.18,24.18,0,0,0,466.76,201.74Z"/><path class="cls-77" d="M465.34,203.06l-3.81,2.2a77.66,77.66,0,0,1-77.68,0l-30.33-17.5a23.58,23.58,0,0,0-35.38,20.42v65.25a23.59,23.59,0,0,0,35.38,20.43l30.33-17.51a77.71,77.71,0,0,1,77.68,0l3.81,2.2a23.59,23.59,0,0,0,35.39-20.42V223.49A23.59,23.59,0,0,0,465.34,203.06Z"/><path class="cls-78" d="M463.93,204.38,461.07,206a76.39,76.39,0,0,1-76.4,0l-28.53-16.47a23,23,0,0,0-34.5,19.92v62.61A23,23,0,0,0,356.14,292l28.53-16.47a76.44,76.44,0,0,1,76.4,0l2.86,1.65a23,23,0,0,0,34.5-19.92v-33A23,23,0,0,0,463.93,204.38Z"/><path class="cls-79" d="M462.51,205.7l-1.91,1.1a75.08,75.08,0,0,1-75.1,0l-26.74-15.43a22.41,22.41,0,0,0-33.62,19.41v60a22.41,22.41,0,0,0,33.62,19.41l26.74-15.44a75.13,75.13,0,0,1,75.1,0l1.91,1.1a22.41,22.41,0,0,0,33.62-19.41V225.11A22.41,22.41,0,0,0,462.51,205.7Z"/><path class="cls-80" d="M461.09,207l-.95.55a73.79,73.79,0,0,1-73.81,0l-24.94-14.4a21.83,21.83,0,0,0-32.74,18.9v57.35a21.83,21.83,0,0,0,32.74,18.9l24.94-14.4a73.83,73.83,0,0,1,73.81,0l.95.55a21.83,21.83,0,0,0,32.74-18.9V225.92A21.83,21.83,0,0,0,461.09,207Z"/><path class="cls-81" d="M459.68,208.34h0a72.56,72.56,0,0,1-72.53,0L364,195a21.24,21.24,0,0,0-31.86,18.39v54.71A21.24,21.24,0,0,0,364,286.47l23.14-13.36a72.56,72.56,0,0,1,72.53,0h0a21.24,21.24,0,0,0,31.86-18.39v-28A21.24,21.24,0,0,0,459.68,208.34Z"/><path class="cls-82" d="M574.29,101.91l-40.63,23.46a248.84,248.84,0,0,1-248.84,0L152.87,49.19c-46.1-26.62-103.73,6.66-103.73,59.89V375.69c0,53.24,57.63,86.51,103.74,59.9l131.94-76.18a248.84,248.84,0,0,1,248.84,0l40.63,23.45C620.4,409.48,678,376.21,678,323V161.81C678,108.57,620.4,75.29,574.29,101.91Z"/><path class="cls-83" d="M564.14,111.37,527.2,132.69a233.29,233.29,0,0,1-233.31,0L171.68,62.13c-43.3-25-97.42,6.25-97.42,56.25V366.1c0,50,54.12,81.24,97.42,56.25l122.21-70.56a233.29,233.29,0,0,1,233.31,0l36.94,21.32c43.29,25,97.42-6.25,97.42-56.24V167.61C661.56,117.62,607.43,86.37,564.14,111.37Z"/><path class="cls-84" d="M554,120.82,520.74,140A217.79,217.79,0,0,1,303,140L190.48,75.08C150,51.7,99.38,80.92,99.38,127.67V356.51c0,46.75,50.61,76,91.1,52.6L303,344.17a217.74,217.74,0,0,1,217.78,0L554,363.36c40.49,23.38,91.11-5.85,91.11-52.6V173.42C645.09,126.67,594.47,97.45,554,120.82Z"/><path class="cls-85" d="M543.83,130.28l-29.55,17.06a202.24,202.24,0,0,1-202.25,0L209.29,88c-37.69-21.76-84.79,5.44-84.79,49V346.91c0,43.52,47.1,70.71,84.79,49L312,336.54a202.29,202.29,0,0,1,202.25,0l29.55,17.06c37.68,21.76,84.79-5.44,84.79-49V179.23C628.62,135.72,581.51,108.52,543.83,130.28Z"/><path class="cls-86" d="M533.67,139.73l-25.85,14.93a186.72,186.72,0,0,1-186.71,0l-93-53.7c-34.88-20.14-78.47,5-78.47,45.31v191c0,40.27,43.59,65.44,78.47,45.31l93-53.71a186.72,186.72,0,0,1,186.71,0l25.85,14.93c34.88,20.14,78.48-5,78.48-45.31V185C612.15,144.77,568.55,119.6,533.67,139.73Z"/><path class="cls-87" d="M523.52,149.19,501.36,162a171.17,171.17,0,0,1-171.18,0L246.89,113.9c-32.07-18.51-72.15,4.63-72.15,41.66V327.73c0,37,40.09,60.17,72.15,41.66l83.29-48.09a171.17,171.17,0,0,1,171.18,0l22.16,12.8c32.07,18.51,72.16-4.63,72.16-41.66V190.85C595.68,153.82,555.59,130.67,523.52,149.19Z"/><path class="cls-88" d="M513.36,158.64,494.9,169.31a155.67,155.67,0,0,1-155.65,0L265.7,126.84c-29.26-16.89-65.84,4.23-65.84,38V318.13c0,33.79,36.58,54.91,65.84,38l73.55-42.47a155.67,155.67,0,0,1,155.65,0l18.46,10.66c29.27,16.9,65.85-4.22,65.85-38V196.66C579.21,162.87,542.63,141.75,513.36,158.64Z"/><path class="cls-89" d="M503.21,168.1l-14.77,8.53a140.12,140.12,0,0,1-140.12,0L284.5,139.79C258.05,124.51,225,143.6,225,174.15V308.54c0,30.55,33.07,49.64,59.52,34.37l63.82-36.85a140.12,140.12,0,0,1,140.12,0l14.77,8.53c26.46,15.27,59.52-3.82,59.52-34.37V202.47C562.73,171.92,529.67,152.83,503.21,168.1Z"/><path class="cls-90" d="M493.06,177.56,482,184a124.57,124.57,0,0,1-124.59,0l-54.08-31.22c-23.65-13.66-53.21,3.41-53.21,30.72V299c0,27.3,29.56,44.37,53.21,30.72l54.08-31.23a124.57,124.57,0,0,1,124.59,0l11.08,6.4c23.64,13.65,53.2-3.42,53.2-30.72V208.28C546.26,181,516.7,163.9,493.06,177.56Z"/><path class="cls-91" d="M482.9,187l-7.39,4.27a109,109,0,0,1-109,0l-44.35-25.61a31.26,31.26,0,0,0-46.89,27.07v96.61a31.26,31.26,0,0,0,46.89,27.08l44.35-25.61a109,109,0,0,1,109.05,0l7.39,4.26A31.25,31.25,0,0,0,529.79,268V214.08A31.26,31.26,0,0,0,482.9,187Z"/><path class="cls-92" d="M472.75,196.47l-3.7,2.13a93.55,93.55,0,0,1-93.52,0l-34.62-20A27,27,0,0,0,300.34,202v77.72a27.05,27.05,0,0,0,40.57,23.43l34.62-20a93.5,93.5,0,0,1,93.52,0l3.7,2.13a27,27,0,0,0,40.57-23.43v-42A27,27,0,0,0,472.75,196.47Z"/><path class="cls-93" d="M462.59,205.92h0a78,78,0,0,1-78,0l-24.89-14.37a22.84,22.84,0,0,0-34.26,19.78v58.84A22.84,22.84,0,0,0,359.72,290l24.89-14.37a78,78,0,0,1,78,0h0a22.84,22.84,0,0,0,34.26-19.78V225.7A22.84,22.84,0,0,0,462.59,205.92Z"/></svg>